<svg width="54" height="59" viewBox="0 0 54 59" fill="none" xmlns="http://www.w3.org/2000/svg">
<path d="M14.4643 0C16.0674 0 17.3571 1.2957 17.3571 2.90625V7.75H36.6429V2.90625C36.6429 1.2957 37.9326 0 39.5357 0C41.1388 0 42.4286 1.2957 42.4286 2.90625V7.75H46.2857C50.5406 7.75 54 11.2254 54 15.5V50.375C54 54.6496 50.5406 58.125 46.2857 58.125H7.71429C3.45938 58.125 0 54.6496 0 50.375V15.5C0 11.2254 3.45938 7.75 7.71429 7.75H11.5714V2.90625C11.5714 1.2957 12.8612 0 14.4643 0ZM14.4643 13.5625H7.71429C6.65357 13.5625 5.78571 14.4344 5.78571 15.5V21.3125H48.2143V15.5C48.2143 14.4344 47.3464 13.5625 46.2857 13.5625H14.4643ZM5.78571 27.125V50.375C5.78571 51.4406 6.65357 52.3125 7.71429 52.3125H46.2857C47.3464 52.3125 48.2143 51.4406 48.2143 50.375V27.125H5.78571Z" fill="black"/>
</svg>