<svg width="62" height="62" viewBox="0 0 62 62" fill="none" xmlns="http://www.w3.org/2000/svg">
<path d="M29.0625 0.738684C30.1644 -0.254285 31.8355 -0.254285 32.9375 0.738684L61.0312 25.9262C62.2301 26.9918 62.3269 28.8324 61.2492 30.0313C60.1715 31.2301 58.3429 31.327 57.1441 30.2492L56.1754 29.3774V54.2379C56.1754 58.5125 52.7 61.9879 48.4254 61.9879H13.5504C9.27576 61.9879 5.80037 58.5125 5.80037 54.2379V29.3774L4.83162 30.2492C3.63279 31.3149 1.80427 31.218 0.72654 30.0313C-0.351195 28.8445 -0.24221 27.0039 0.944508 25.9262L29.0625 0.738684ZM31 6.80548L11.625 24.1824V54.25C11.625 55.3156 12.4969 56.1875 13.5625 56.1875H19.375V43.5938C19.375 38.7742 23.2742 34.875 28.0937 34.875H33.9062C38.7258 34.875 42.625 38.7742 42.625 43.5938V56.1875H48.4375C49.5031 56.1875 50.375 55.3156 50.375 54.25V24.1824L31 6.81759V6.80548ZM25.1875 56.1875H36.8125V43.5938C36.8125 41.9832 35.5168 40.6875 33.9062 40.6875H28.0937C26.4832 40.6875 25.1875 41.9832 25.1875 43.5938V56.1875Z" fill="black"/>
</svg>