<svg width="47" height="62" viewBox="0 0 47 62" fill="none" xmlns="http://www.w3.org/2000/svg">
<path d="M3.25525e-05 22.8383C3.25525e-05 10.2203 10.5261 0 23.5 0C36.474 0 47 10.2203 47 22.8383C47 37.2848 32.2881 54.6012 26.1438 61.2008C24.6995 62.7508 22.2883 62.7508 20.844 61.2008C14.6998 54.6012 -0.012207 37.2848 -0.012207 22.8383H3.25525e-05ZM23.5 31C25.5776 31 27.57 30.1835 29.039 28.7301C30.5081 27.2767 31.3334 25.3054 31.3334 23.25C31.3334 21.1946 30.5081 19.2233 29.039 17.7699C27.57 16.3165 25.5776 15.5 23.5 15.5C21.4225 15.5 19.4301 16.3165 17.961 17.7699C16.492 19.2233 15.6667 21.1946 15.6667 23.25C15.6667 25.3054 16.492 27.2767 17.961 28.7301C19.4301 30.1835 21.4225 31 23.5 31Z" fill="grey"/>
</svg>